# xmcd CD database file
#
# Track frame offsets:
#	150
#	15229
#	29759
#	47388
#	68715
#	85030
#	100932
#	125065
#	144706
#	163423
#	180682
#	211124
#
# Disc length: 3525 seconds
#
# Revision: 1
# Processed by: cddbd v1.5.2PL0 Copyright (c) Steve Scherf et al.
# Submitted via: CDex 1.70beta2
#
DISCID=a10dc30c
DTITLE=John Michael Montgomery - Time Flies
DYEAR=2008
DGENRE=Country
TTITLE0=What Did I Do
TTITLE1=Let's Get Lost
TTITLE2=If You Ever Went Away
TTITLE3=Forever
TTITLE4=With My Shirt On
TTITLE5=Mad Cowboy Disease
TTITLE6=Loving And Letting Go
TTITLE7=Fly On
TTITLE8=Drunkard's Prayer
TTITLE9=All In A Day
TTITLE10=Brothers 'Til The End
TTITLE11=If You Ever Went Away Music Video
EXTD=YEAR: 2008
EXTT0=
EXTT1=
EXTT2=
EXTT3=
EXTT4=
EXTT5=
EXTT6=
EXTT7=
EXTT8=
EXTT9=
EXTT10=
EXTT11=
PLAYORDER=
